<svg xmlns="http://www.w3.org/2000/svg" xmlns:xlink="http://www.w3.org/1999/xlink" viewBox="0 0 32 32" version="1.1"><g id="surface1"><path style=" " d="M 4 4 L 4 13 L 6 13 L 6 7.4375 L 11.28125 12.71875 L 12.71875 11.28125 L 7.4375 6 L 13 6 L 13 4 Z M 19 4 L 19 6 L 24.5625 6 L 19.28125 11.28125 L 20.71875 12.71875 L 26 7.4375 L 26 13 L 28 13 L 28 4 Z M 4 19 L 4 28 L 13 28 L 13 26 L 7.4375 26 L 12.71875 20.71875 L 11.28125 19.28125 L 6 24.5625 L 6 19 Z M 26 19 L 26 24.5625 L 20.71875 19.28125 L 19.28125 20.71875 L 24.5625 26 L 19 26 L 19 28 L 28 28 L 28 19 Z "></path></g></svg>